<svg xmlns="http://www.w3.org/2000/svg" viewBox="0 0 2118.55 1852.22"><defs><style>.cls-1{isolation:isolate;}.cls-2{fill:#96d9c9;}.cls-3{fill:#3c8f7c;}.cls-4{fill:#50bfa5;}.cls-5{fill:#184655;}.cls-6{fill:#8ecae6;}.cls-7{fill:#fae0b2;}.cls-8{fill:#023047;}.cls-9{fill:#219ebc;}.cls-10{fill:#ff4c16;}.cls-11{fill:#ffb703;}.cls-12{fill:#fb8500;}.cls-13{fill:#13375b;}.cls-14{fill:#355389;}.cls-15{fill:#f7cc7f;}.cls-16{fill:#9bc1f9;}.cls-17{fill:#f48c7f;}.cls-18{fill:#466eb6;}.cls-19{fill:#3259a1;}.cls-20{fill:#ffa283;}.cls-21{fill:#ff7f4c;opacity:0.68;mix-blend-mode:multiply;}.cls-22{fill:#011037;}.cls-23{fill:#a4c0f5;}</style></defs><g class="cls-1"><g id="Layer_1" data-name="Layer 1"><path class="cls-2" d="M1442.36,845.25l28.62-27.7c-9-50.08-55.94-74.19-86.88-77.47-83.32-8.84-125.79,48.44-143.67,140.32-32.62,167.69,8.45,871.85,8.45,871.85,3.08-18.71,229.37-725.84,223.57-920.12Z" transform="translate(-124.64 -67.73)"/><path class="cls-3" d="M378.34,1455.37l-3.08,22.79-7.38-26.36c-20.73-6.53-38.73-8.77-53-5.53-127.52,29,92.84,204.36,92.84,204.36s-70.23-44.09-138.25-72l-.86,23.1-8.7-26.11c-52.85-20.68-101.88-30.25-111.68-.38-9.22,28.13,9.34,54.75,41.28,78.45l36.72,1.29-21.64,9.07c73.76,47.25,195.79,81,237.91,88.74-40.3-6.33-138.8-19.15-197.18-6.55l9.16,15.24-23-11.52c-20.43,6.59-33.12,17.5-31.75,34.68,2.61,32.85,145.15,44.68,145.15,44.68l520.71-4.83,2.9,1.45S546.2,1516.86,378.34,1455.37Z" transform="translate(-124.64 -67.73)"/><path class="cls-4" d="M2186.57,1748.57c-11.58-53.76-129.14-69.56-279-40.09,53.35-18.24,126.66-59.74,164.63-78.7l-26-16.53,52.15,2.43c42.66-25,64-49.51,50.05-71.7-10.4-16.57-33.24-23.46-64.18-23.38l-16.3,29.17,3.38-28.77c-78.06,4.51-95.77-8.23-201.07,34.34,65.8-34.17,75.31-44.76,79.63-58.48l-35.64-15.59H1956c33.76-36.32,87.32-108.16,65.11-141.27-18.34-27.33-98.81,10.6-150.18,30.31l-21.85,49.15,4.43-42c-163.32,71.14-108,14.06-108,14.06s170.49-352.68,70.06-344.75c-39.65,3.13-82.29,27-124.17,65.32l-1.06,35.05-12.46-22.24c-30.5,29.89-60.7,66.1-89.53,105,39.09-82.1,68.74-162.74,71.69-222.79l-29.84-3.61L1659.69,983c-2.77-30.33-14.78-53.28-39.13-65.4-37.34-18.61-76.53,9.54-115.11,65.47l9.53,50.49L1491,1005.25c-138.16,225.17-264.48,779.51-264.48,779.51l-10,30.07,405.88,20S2210,1857.16,2186.57,1748.57Z" transform="translate(-124.64 -67.73)"/><path class="cls-5" d="M2236.86,1837.53H131a6.74,6.74,0,0,1,0-13.45H2236.86a6.74,6.74,0,0,1,0,13.45Z" transform="translate(-124.64 -67.73)"/><path class="cls-6" d="M1589.68,1598.7H637.73c-36.36,0-65.83-26.75-65.83-59.73v-35.52c0-33,29.47-59.73,65.83-59.73h952c-43.55,43.18-44.3,109.18-1.75,153.17Z" transform="translate(-124.64 -67.73)"/><path class="cls-7" d="M1576.34,1461.48h-479a59.73,59.73,0,0,0-59.73,59.73h0a59.73,59.73,0,0,0,59.73,59.73h479.07A114.84,114.84,0,0,1,1576.34,1461.48Z" transform="translate(-124.64 -67.73)"/><path class="cls-8" d="M1546.81,1274.3c2.09-3.58-1.08-7.73-5.9-7.73H782.79c-59.42,0-107.59,39.75-107.59,88.79h0c0,49,48.17,88.79,107.59,88.79h758.33c4.84,0,8-4.18,5.91-7.77h0C1517,1385.06,1517.09,1325.39,1546.81,1274.3Z" transform="translate(-124.64 -67.73)"/><path class="cls-7" d="M1540.77,1285.68H1032.11a68,68,0,0,0-68,68v5.1a68,68,0,0,0,68,68h509.74C1519.06,1381.61,1518.81,1330.9,1540.77,1285.68Z" transform="translate(-124.64 -67.73)"/><path class="cls-7" d="M624.17,1258.68h489.26c43.38,0,78.55-37.92,78.55-84.71h0c0-46.79-35.17-84.71-78.55-84.71H624.17c37.4,47,38.86,115.85,3.49,164.61Z" transform="translate(-124.64 -67.73)"/><path class="cls-9" d="M1185.54,1174h0c0-46.79-35.58-84.71-79.46-84.71H615.27a4.25,4.25,0,0,1-4.11-4.44h0a4.25,4.25,0,0,1,4.11-4.34h778.6c48.43,0,87.69,41.86,87.69,93.49h0c0,51.63-39.26,93.49-87.69,93.49H615.28a4.26,4.26,0,0,1-4.12-4.35h0a4.27,4.27,0,0,1,4.12-4.43h490.8C1150,1258.68,1185.54,1220.76,1185.54,1174Z" transform="translate(-124.64 -67.73)"/><path class="cls-10" d="M1220.22,1356.82h-52.36c-11.26,0-20.39,3.49-20.39,7.8v.7h72.75Z" transform="translate(-124.64 -67.73)"/><path class="cls-11" d="M1264.88,1376.38c0-10.8-13.68-19.56-30.54-19.56h-67.19c12.79,0,23.16,6.64,23.16,14.84l-.32,209.66,37.13-27,37.84,27Z" transform="translate(-124.64 -67.73)"/><path class="cls-12" d="M1981.08,1598.38H566.59a79.53,79.53,0,0,0-79.53,79.53v66.9a79.53,79.53,0,0,0,79.53,79.53H1981.08l-.74-.77A162,162,0,0,1,1981.08,1598.38Z" transform="translate(-124.64 -67.73)"/><path class="cls-7" d="M1956,1631.83H1199.88a79.53,79.53,0,0,0-79.53,79.53h0a79.53,79.53,0,0,0,79.53,79.53H1956A162.18,162.18,0,0,1,1956,1631.83Z" transform="translate(-124.64 -67.73)"/><path class="cls-13" d="M1584.77,1711.77h-61.32a23.88,23.88,0,0,0-23.88,23.88v2.14h85.2Z" transform="translate(-124.64 -67.73)"/><path class="cls-14" d="M1526,1711.86c14.66,0,36.55,12.4,48.9,27.71L1720.29,1920l85.43,0-138.33-171.55c-16.27-20.19-45.13-36.54-64.46-36.53Z" transform="translate(-124.64 -67.73)"/><path class="cls-15" d="M500.19,1129.44c-36.24,5.48-47.6,52.81-17.81,74.43A27.64,27.64,0,0,1,492.9,1220l5.19,22.15a12,12,0,0,0,13.5,9.15l13.74-2.07a12,12,0,0,0,10.19-12.74c-1.6-22.82-3.84-31.12,3.7-41.19C561.28,1165.82,536.45,1124,500.19,1129.44Z" transform="translate(-124.64 -67.73)"/><path class="cls-7" d="M508.11,1234h0a3.32,3.32,0,0,1-3.76-2.84l-6.76-48.3-11.31-9.7a3.33,3.33,0,1,1,4.34-5.06l13.23,11.33,7.1,50.81A3.32,3.32,0,0,1,508.11,1234Z" transform="translate(-124.64 -67.73)"/><path class="cls-7" d="M524.92,1233.5h0a3.33,3.33,0,0,0,2.76-3.82l-7.82-48.15,7.94-12.6a3.34,3.34,0,0,0-5.65-3.56l-9.28,14.74,8.23,50.64A3.33,3.33,0,0,0,524.92,1233.5Z" transform="translate(-124.64 -67.73)"/><path class="cls-2" d="M492.75,1219.43c0,.19.11.37.15.55l5.19,22.15a12,12,0,0,0,13.5,9.15l13.74-2.07a12,12,0,0,0,10.19-12.74c-.71-10.15-1.55-17.42-1.6-23.26Z" transform="translate(-124.64 -67.73)"/><path class="cls-11" d="M493.37,776.75,479,756l-25.25,0a3.47,3.47,0,0,1-2.77-5.57l15.31-20.08-7.85-24a3.46,3.46,0,0,1,4.44-4.35l23.83,8.36,20.4-14.89a3.47,3.47,0,0,1,5.51,2.89L512,723.63l20.46,14.8a3.46,3.46,0,0,1-1,6.13l-24.19,7.25-7.74,24A3.48,3.48,0,0,1,493.37,776.75Z" transform="translate(-124.64 -67.73)"/><path class="cls-16" d="M1823.24,814.38l-10.55-15.25-18.55,0a2.55,2.55,0,0,1-2-4.1l11.25-14.75-5.77-17.62a2.55,2.55,0,0,1,3.27-3.2l17.5,6.14,15-10.94a2.56,2.56,0,0,1,4.06,2.12l-.44,18.54,15,10.87a2.55,2.55,0,0,1-.76,4.51l-17.77,5.32-5.69,17.65A2.54,2.54,0,0,1,1823.24,814.38Z" transform="translate(-124.64 -67.73)"/><polygon class="cls-17" points="1402.92 522.4 1379.6 518.47 1365.94 538.35 1340.11 532.1 1332.08 557.76 1302.55 551.98 1292.25 574.7 1262.93 573.78 1263.28 562.69 1285.2 563.37 1296.07 539.4 1324.45 544.95 1332.61 518.87 1361.12 525.76 1374.46 506.35 1396.08 509.99 1402.18 495.41 1412.42 499.69 1402.92 522.4"/><polygon class="cls-4" points="740.82 594.69 723.74 599.93 712.28 573.38 686.36 577.97 674.53 559.5 665.18 565.49 681 590.19 705.57 585.85 717.5 613.46 743.2 605.58 740.82 594.69"/><path class="cls-17" d="M362.59,943.67,337,959.22l26.52,119.11a15.39,15.39,0,0,0,23,9.81h0a15.4,15.4,0,0,0,7-16.63l-6.48-28,26.82-16.32,22.18,18.56a15.41,15.41,0,0,0,17.88,1.35l.48-.3a15.39,15.39,0,0,0,1.86-25Zm17.29,71.77L375,993.56l17.21,14.38Z" transform="translate(-124.64 -67.73)"/><path class="cls-15" d="M1904.75,1056.37c1.31-3.37.86-15.46,17.65-27.07,6.9-4.73,12.56-8.74,14.09-14.26,2.64-9.51-7.37-14.08-17.35-14a9.56,9.56,0,0,1-9.54-9.27h0a9.61,9.61,0,0,1,9.14-9.89,62.37,62.37,0,0,1,19.53,2.24c21.41,5.94,27.85,20.49,24.11,33.95-3.42,12.32-13.29,18.32-21.35,23.42-13.56,8.61-13.55,18.21-14.71,20.9Zm-10.43,21.21c2.39-8.6,10.1-13.09,18.53-10.75,8.76,2.43,12.73,10.17,10.5,18.81-2.34,8.43-9.93,13.14-18.69,10.71C1896.06,1094,1892,1086,1894.32,1077.58Z" transform="translate(-124.64 -67.73)"/><path class="cls-6" d="M661.51,763.15c6.56.54,19.38,3.19,31.15,6.56,14.42,4.12,22.85,8,29.16,14.7,6.18,6,9.41,14.59,6.71,24.05-2.66,9.29-10.57,16.42-23.58,17.4l-.09.31c11,6.66,17.26,18.17,13.41,31.66-2.7,9.45-9.17,15.65-17.18,19.06-9.32,3.87-23,3.65-43.77-2.29a190.19,190.19,0,0,1-25.13-8.86Zm12,46.67,7.75,2.22c12.39,3.54,20.52.33,22.73-7.42s-2.59-13.81-13.28-16.87a67.83,67.83,0,0,0-10.25-2.26Zm-13.25,46.34a78.49,78.49,0,0,0,9.06,2.92c10.69,3.06,21.3,1.73,24.44-9.27,3-10.54-5.24-17.42-17-20.79l-8.06-2.3Z" transform="translate(-124.64 -67.73)"/><path class="cls-15" d="M1672.94,808.33a10.9,10.9,0,0,1-8,13,101.75,101.75,0,0,1-20.19,2.6c-41.17,1.38-63.23-23.52-64.38-57.44-1.37-40.64,26.85-64.23,62.89-65.44a91.85,91.85,0,0,1,18.54,1.17,10.93,10.93,0,0,1,8.76,13.13l-.08.38a10.9,10.9,0,0,1-12.51,8.42,60.79,60.79,0,0,0-12.73-.88c-21.37.72-37.55,14.17-36.65,40.68.8,23.85,15.44,38.39,39.47,37.58a72.07,72.07,0,0,0,12-1.52,10.89,10.89,0,0,1,12.86,8.27Z" transform="translate(-124.64 -67.73)"/><path class="cls-18" d="M337.88,1362.58a16.69,16.69,0,0,1,10.47-20.93c8.89-2.94,17,1.42,20.38,10.29,3.21,8.92-.38,17.77-9.64,21.11S341,1371.78,337.88,1362.58ZM335,1336.77l-27.72-66.22a10.38,10.38,0,0,1,6.06-13.77l6.75-2.44a10.38,10.38,0,0,1,13.44,6.73l21,68.65Z" transform="translate(-124.64 -67.73)"/><path class="cls-6" d="M1739,67.73H1465.57A132.75,132.75,0,0,0,1340.2,243.92l-40.49,46.6,60-10.13a132.48,132.48,0,0,0,105.87,52.7H1739a132.68,132.68,0,1,0,0-265.36Zm65.49,172.05h-393.6a9.4,9.4,0,1,1,0-18.79h393.6a9.4,9.4,0,1,1,0,18.79Zm0-69.74h-393.6a9.4,9.4,0,1,1,0-18.79h393.6a9.4,9.4,0,1,1,0,18.79Z" transform="translate(-124.64 -67.73)"/><path class="cls-19" d="M1073.28,425.45c38.54-31.21,139.52,11.93,154.56,32.07,14.8,19.8,44.83,228.78,22.72,243.24s-90.5,43.72-119,17.9S1073.28,425.45,1073.28,425.45Z" transform="translate(-124.64 -67.73)"/><path class="cls-20" d="M1038.67,414.22s-65.5-33.47-74.37-50.09-45.92-72.58-45.92-72.58-18.93,2.39-23.93,10.87c6.14,23.07,25,87,49.38,105.81s88.58,57.66,88.58,57.66Z" transform="translate(-124.64 -67.73)"/><path class="cls-20" d="M1025.71,808.49s-2.21,45.43-2.21,73.13,42.66,136.29,38.78,151.8,40.2,13.4,40.2,13.4,3-84.31-8.35-124.2,0-121.88,0-121.88Z" transform="translate(-124.64 -67.73)"/><path class="cls-20" d="M1132.72,786.59s14.32,75.09,26,92.26,74.23,134.07,74.23,149,39.34,2.77,39.34,2.77-33.24-128-46.54-166.76A461.8,461.8,0,0,1,1207.43,793Z" transform="translate(-124.64 -67.73)"/><path class="cls-13" d="M1025.16,712.09c-4.07,24.71-20.63,174.78-20.63,174.78s56.48,17.35,90.28,9.6c0,0-1-120.67,6.8-120.67h.24a24.49,24.49,0,0,1,23.49,18.55c6.47,26,24.23,104.43,24.23,104.43s71.4-9.95,86.91-17.15c0,0-23.85-169.76-49.89-195.8l-31.24-28-113.86-14.68S1028,694.61,1025.16,712.09Z" transform="translate(-124.64 -67.73)"/><path class="cls-18" d="M995.24,1081.06h121s2.5-43.76-5.81-52.07-6.1,1-20,6.34-22.86-7.47-29.19-13.8-1.83,20.2-28.42,20.2S989.15,1068.88,995.24,1081.06Z" transform="translate(-124.64 -67.73)"/><path class="cls-18" d="M1231.64,1023.06c-6.25,1.44-26,17.51-32.5,34.9s-4.67,23.59-4.67,23.59,20,8.91,58.48,6.1,32.58-7,32.58-7-2.74-39.55-9.27-51.58S1242.61,1020.54,1231.64,1023.06Z" transform="translate(-124.64 -67.73)"/><path class="cls-20" d="M1260,535.55c39.49,63.74,62.38,107.57,40.31,135.28-24.12,30.27-75.15,24.34-98.78,50.06-22.19-8.18-26.68-30.07-26.68-30.07l22.88-7.44c45.49-19.75,64.66-31.44,58.36-53s-28.52-50.31-28.52-50.31C1237.79,533.58,1260,535.55,1260,535.55Z" transform="translate(-124.64 -67.73)"/><path class="cls-11" d="M1283.62,547s-30.26,44.69-53.92,45.5c-15.52-23.37-22.44-36.8-22.59-34.24-.18,2.89-.14,79.24-4.17,120.93-31.22,18.07-178,6.15-178.11-13-.07-14.59,35.35-160.8,15-176.73-7.41-5.79-70.42-39.58-70.42-39.58s26.29-51.7,42.46-67.73c0,0,31.57,16.51,61.73,28.64,39.57,15.92,72.88,20.32,94.9,30.54C1246,477.33,1251.85,494.65,1283.62,547Z" transform="translate(-124.64 -67.73)"/><path class="cls-18" d="M1171.81,442.89c-20.57,61.45,5.75,192.33,34.83,224.93,8.39-20.3-23.92-102.62-.05-207C1207.28,455.48,1173.89,437.22,1171.81,442.89Z" transform="translate(-124.64 -67.73)"/><path class="cls-18" d="M1114.48,424.61c-29.73,32.3-74.34,152.35-75.28,158.32,1.3-104.9,41.36-154.59,48-166.78C1091.6,413.2,1115,421.44,1114.48,424.61Z" transform="translate(-124.64 -67.73)"/><path class="cls-20" d="M1109.29,394v54.85s20.09,21.6,46.13,6.64l12-70.58Z" transform="translate(-124.64 -67.73)"/><path class="cls-21" d="M1109.29,421.65c16.6,4.19,37.11-2.87,54.74-16.85l3.38-19.88L1109.29,394Z" transform="translate(-124.64 -67.73)"/><path class="cls-20" d="M1110.82,298.88s-56.59,67.91-30.81,101.24,84.27,10.69,113.19-31.44S1121.51,267.44,1110.82,298.88Z" transform="translate(-124.64 -67.73)"/><path class="cls-22" d="M1166.16,323.41s20.76.62,12.58,20.12-23,26.1-15.09,34c5.4,5.4,2.32,16.45-.14,22.83a15.79,15.79,0,0,0-.43,10.29l.14.45a16.62,16.62,0,0,0,17.33,11.73c19-1.64,50.9-11.23,49.12-57.25,0,0,15.87-29.56.08-52.2S1202,292.59,1202,292.59s-5.66-21.38-23.27-26.41-69.17-23.27-74.83,5S1123.4,320.26,1166.16,323.41Z" transform="translate(-124.64 -67.73)"/><path class="cls-20" d="M1160.58,358.94c1.47-.76,22.39-10.46,25.47,1.41,2.86,11-1.11,28.06-16.12,28.06S1141.72,368.6,1160.58,358.94Z" transform="translate(-124.64 -67.73)"/><path class="cls-23" d="M1116.29,1081.06s.52-9.08.3-19.76c-14.2,6.13-92.08,5.15-120.38,4.57-2.47,5.68-3,11.23-1,15.19Z" transform="translate(-124.64 -67.73)"/><path class="cls-23" d="M1253,1087.65c38.45-2.81,32.58-7,32.58-7s-.63-9.11-2-19.92h0c-26.77,23.89-68.56,11.69-86.85,4.58-3.52,11.84-2.19,16.26-2.19,16.26S1214.5,1090.46,1253,1087.65Z" transform="translate(-124.64 -67.73)"/><path class="cls-20" d="M901.24,323.29c9.28-2.57,21-7.56,29.57-11.49-3.72-4.95-6.26-8.77-6.82-10.54-2.62-8.31,13.88-40.82,11.18-43.48S922.39,272,920.72,270.39s-4-38.78-9.54-38.67,0,31.55-3.45,31.62-9.52-37.43-15-33.56,7.59,32.87,3.94,34.4-14.12-25.93-18-25.85-1,6.17,1.84,13.43S888,269,885.8,269s-13.2-17.3-17-16,26.94,51.5,29.6,62.53A68.44,68.44,0,0,0,901.24,323.29Z" transform="translate(-124.64 -67.73)"/></g></g></svg>