<svg id="Layer_1" data-name="Layer 1" xmlns="http://www.w3.org/2000/svg" viewBox="0 0 1919.1 1719.3"><defs><style>.cls-1{fill:#ebf3fa;}.cls-2{fill:#ffb27d;}.cls-3{fill:#2c3a64;}.cls-4{fill:#2b478b;}.cls-5{fill:#233862;}.cls-6{fill:#ed7d2b;}.cls-7{fill:#ffb93e;}.cls-8{fill:#ed985f;}.cls-9{fill:#f99746;}.cls-10{fill:#f0995e;}.cls-11{fill:#35488b;}.cls-12{fill:#fff;}.cls-13{fill:#232e4f;}.cls-14{fill:#e3a330;}.cls-15{fill:#2e3552;}.cls-16{fill:#d2e3fc;}.cls-17{fill:#b7d3f3;}</style></defs><path class="cls-1" d="M375.39,1862.7s-271-549.5-126-978.63C687.93-413.27,2039.49,258,1913.16,966.68c-69.47,389.74,188.61,506.52,54.3,896.85Z" transform="translate(-134.82 -147.97)"/><path class="cls-2" d="M1048.46,1069.05l19.7,6.4s31.3-10.36,58.67,26.34c0,0,8.57,13.66-2,24.07-9.71,9.58-11.61-13-30.31-8.49s-31.36-2.53-39.71-13.95l-13.77-8.23Z" transform="translate(-134.82 -147.97)"/><path class="cls-3" d="M1452.84,447.85c.12-3.45,2.8-40.67,59.48-42.61,0,0-27.87,3.32-32.69,15.58,0,0,19-15.15,34.44-10.28s24.54,32,24.63,40.86-8.5,37.62-18.31,40.07a30.07,30.07,0,0,1-11.88,0,133,133,0,0,1,7.61,13.59c22.62,46.44-.71,91.82-19.86,86.8-12.28-3.21-15.75,17.74-15.75,17.74L1361.19,513S1405,422.33,1452.84,447.85Z" transform="translate(-134.82 -147.97)"/><path class="cls-2" d="M1160.06,979.91s-23.65-4.61-29,0-31,30.66-25.56,39.22,31.81-7.08,37.29-8.56,20.77-7.45,20.77-7.45Z" transform="translate(-134.82 -147.97)"/><path class="cls-4" d="M1411.29,1815.8l25.35,9.44s110.08-152.68,123.64-287c2.42-24,1.61-47.22-3.63-68.68,0,0,1.08-6.14,3-17,.87-5.07,2-11.17,3.17-18.17,3.58-20.5,8.5-48.56,14.13-80.51,12.95-73.52,29.74-167.5,42.77-236.59l-6.83-2.19L1539,1091.24l-15.27-48.5-55-14.49s-12.29,24-23.28,137.63c-2,14.89-3.87,31.32-5.25,49.14a971.89,971.89,0,0,0,5.23,199c2.53,19.74,5.71,40.13,9.67,61.06,2.89,15.36,3.33,36.28,2.11,60.3C1451.6,1645.14,1411.29,1815.8,1411.29,1815.8Z" transform="translate(-134.82 -147.97)"/><path class="cls-5" d="M1440.14,1215l119.47,237.52c.87-5.07,2-11.17,3.17-18.17,3.58-20.5,8.5-48.56,14.13-80.51,12.95-73.52,29.74-167.5,42.77-236.59l-6.83-2.19L1539,1091.24l-15.27-48.5-55-14.49s-12.29,24-23.28,137.63C1443.37,1180.77,1441.52,1197.2,1440.14,1215Z" transform="translate(-134.82 -147.97)"/><path class="cls-4" d="M1492.7,1058.74l2.76-23.72c46.34,12.31,170.15-34.39,170.15-34.39s44.89,39.45,39,134c-2.87,46.17-8.13,242.34-13.62,300.39-2,21-3.72,36-4.43,42a.13.13,0,0,0,0,0,8.35,8.35,0,0,0,1.34,5.15,272.65,272.65,0,0,1,20.26,42.6c53.87,143.54-8.29,320.31-8.29,320.31l-16.14-6.5s-35.37-196.73-64.11-283.64c-4.88-14.74-9.56-26.32-13.85-33.24-12.49-20.17-24.09-53.13-34.62-92.33-19.9-74.11-35.91-170.52-46.57-244.93C1523.09,1184.6,1492.7,1058.74,1492.7,1058.74Z" transform="translate(-134.82 -147.97)"/><path class="cls-2" d="M1160.06,979.91l3.45,23.21s1.53,0,4.22-.19c8.44-.58,29-1.73,52.17-4.22,34.91-3.46,76.34-9.59,92.83-19.76,25.13-15.34,66.37-62.33,93.22-109.33a31.32,31.32,0,0,0,1.92-3.45c14-24.93,23.78-49.68,24.55-69.43a99.49,99.49,0,0,0-3.26-31.46A80.24,80.24,0,0,0,1415,736.9a14.15,14.15,0,0,0-2.68-3.26c-9.21-10.93-18.22-15.54-18.22-15.54-4.61-1.92-9.59.39-14.77,5.95v.19c-4.22,4.41-8.83,11.12-13.24,19.56-.19.2-.38.39-.38.58-1,1.72-1.92,3.64-3.07,5.75a5.17,5.17,0,0,0-.77,1.35q-3.16,6.62-6.33,13.8c-23.59,51.41-43.79,127-64.7,150.15-9,10-55.17,31.87-88,46.45C1179.24,972.24,1160.06,979.91,1160.06,979.91Z" transform="translate(-134.82 -147.97)"/><path class="cls-6" d="M1201.87,929.77c27.51-12.5,59.1-2,71.6,50.5,8.34,35.07,89.5,74,53,127.54-35,42-119,14.53-112-38.76s25-97.84,5.47-106.34C1195.58,952.1,1201.87,929.77,1201.87,929.77Z" transform="translate(-134.82 -147.97)"/><path class="cls-7" d="M1154.36,1083.82c57.7-8.25,113-6.26,116.11,57.24s18.09,183,.09,206.47-112.36,20.17-112.36,20.17C1095.07,1260.06,1154.36,1083.82,1154.36,1083.82Z" transform="translate(-134.82 -147.97)"/><path class="cls-2" d="M1404.18,771.05c14.54,6.75,32.11,11.34,53.36,12.5,79.66,4.37,97.75-65.47,101-111.82-11.49-4.16-21.54-3.76-27.34-3.45-5.64.31-11.54.89-16.4,1.49-9.75-5.09-27.26-29.82-37.37-71.18l-3.44,1.59-57.48,27s6.1,18.71,10.61,36.61c3.52,14,6,27.54,3.94,31.32-4.54,1.85-7.25,3-7.25,3a.17.17,0,0,1,0,.07A393.79,393.79,0,0,0,1404.18,771.05Z" transform="translate(-134.82 -147.97)"/><path class="cls-8" d="M1416.55,627.21s6.11,18.69,10.61,36.61c33.6-9.38,43.8-44.69,46.88-63.63Z" transform="translate(-134.82 -147.97)"/><path class="cls-2" d="M1409.47,647s80.39-18.6,68-68.48-10.3-85.88-62.15-76.11-57.06,31.26-57,48.91S1388.24,650.56,1409.47,647Z" transform="translate(-134.82 -147.97)"/><path class="cls-3" d="M1353.84,523c8.64-18.07,18.81-17.11,25.18-13.91,37.77-34.94,74.82-6.39,74.82-6.39,14.26,34.45,45.16,48.52,45.16,48.52s-12.35,12.65-48.14,12.37c-10.93-.09-21.93-5.11-31.93-12,19.29,19.43,41.92,31.26,41.92,31.26-44.81-8.58-74.85-60.45-77.93-66-3.8,5.61-11.06,17.54-11.67,27.62-.83,13.69,3.88,40.28-4,41.28C1367.29,585.77,1340.88,550.12,1353.84,523Z" transform="translate(-134.82 -147.97)"/><path class="cls-9" d="M1355.31,765.2c2.89-8.69,22.25-42.45,22.25-42.45h0c.08-.07,12.3-11.27,46.28-24.62a.17.17,0,0,1,0,.07c-.54,2-15,54.52-9.74,65.74,5.38,11.4,107.2-25.41,112.77-33.82,4.45-6.74,4.57-42.39,4.45-56.28,0-3.45-.07-5.56-.07-5.56s38-5.16,59.39,3.49c0,0-8.44,18.34-11.55,38.55-.29,1.93-.53,3.85-.72,5.78a77,77,0,0,0-.31,12.12c.31,5.26,3,9.91,7.34,14.47,3.94,4.17,9.27,8.29,15.32,12.7,4,2.85,8.19,5.86,12.58,9.1h0c.37,23.8-1.31,63,3.1,104.72a70.79,70.79,0,0,0,10.18,29.71,72.56,72.56,0,0,0,7.53,10.14c22.46,25.18,62.27,75.38,53.51,106.62-.64,29.47-249.17,68.18-243.85,35.82,0,0-37.35-180-57.52-223.45-.73-1.59-1.39-3.15-2-4.74-6.47-17.15-5.38-34.78-3.19-50.57C1369.67,764.66,1355.31,765.2,1355.31,765.2Z" transform="translate(-134.82 -147.97)"/><path class="cls-6" d="M1510.68,991c49-.52,90.52-51.42,115.89-92.1a70.79,70.79,0,0,1-10.18-29.71c-4.41-41.77-2.73-80.92-3.1-104.72h0c-4.39-3.24-8.63-6.25-12.58-9.1-6-4.41-11.38-8.53-15.32-12.7C1545.25,810.53,1444.21,991.73,1510.68,991Z" transform="translate(-134.82 -147.97)"/><path class="cls-2" d="M1325.39,1017.7l6.71,24.55s8.44-1.54,21.87-4c4-.77,6.33-1.34,6.33-1.34,10.74-2.11,23.59-5,37.59-8.06h.19c24-5.76,50.83-12.66,73.46-20.33,15.92-5.56,29.73-11.51,39.13-17.45a24.86,24.86,0,0,0,2.69-1.92c22.44-16.3,49.1-64.25,69.81-115.66,2.88-7.1,5.57-14.19,8.25-21.1,9.59-25.7,17.26-51,21.86-72.88,2.88-13,4.8-24.94,5.18-34.72a83.46,83.46,0,0,0,.2-9.78c-.39-55.62-28-63.29-28-63.29-.57-.2-1.15-.39-1.91-.58-4.8-.77-9.79,2.49-15,8.82-6.52,7.87-13.42,20.72-20.52,36.25-10.93,24.75-22.44,56.78-33.18,88.62-6,17.45-11.7,34.9-17.45,51-3.27,9.79-6.53,19-9.59,27.43-6,16.11-11.32,29.16-16.12,37.4-3.06,5.37-11.89,12.86-23.59,21.29-20.33,14.77-50.06,32.61-76,47.19-10.74,6.13-20.91,11.7-29.35,16.3C1334.41,1012.9,1325.39,1017.7,1325.39,1017.7Z" transform="translate(-134.82 -147.97)"/><path class="cls-9" d="M1553.32,716.26c36.92-10.18,65.41,18.65,65.41,18.65-.47-55.53-28.11-63.13-28.11-63.13C1579.5,667.17,1566.61,686.43,1553.32,716.26Z" transform="translate(-134.82 -147.97)"/><path class="cls-5" d="M1606.06,1858.35h127.65s3.06-19.45-3.61-34.21c-6.39-14.17-16.39-20.6-14-37.74-8.11,8.35-21.33,17.7-39.78,15.22-2.26,3.67-14.6,23.29-22.15,28.71C1645.83,1836.33,1608.63,1834.19,1606.06,1858.35Z" transform="translate(-134.82 -147.97)"/><path class="cls-5" d="M1332,1858.35h127.65s4.77-20.36-3.61-34.21c-7.42-12.26-4.58-19.24.92-29.38a49.74,49.74,0,0,1-21.5,4c-6.36-.36-13.09-3.25-19-6.67-5.49,6.26-29,32.92-36.37,38.2C1371.74,1836.33,1334.55,1834.19,1332,1858.35Z" transform="translate(-134.82 -147.97)"/><path class="cls-10" d="M1045.88,1410s51.44,364.85,45.51,409.89l32.46-3.94s40.62-159.26,35.74-203.83,40.25-228.24-1.39-244.39S1045.88,1410,1045.88,1410Z" transform="translate(-134.82 -147.97)"/><path class="cls-2" d="M1092.66,1410.41s73.38,365.18,70.23,410.51l32.11-7.42s31.22-164.17,23.6-208.35,26.12-230.29-16.44-243.84S1092.66,1410.41,1092.66,1410.41Z" transform="translate(-134.82 -147.97)"/><path class="cls-3" d="M1091.78,1813.45s-7.72,14.17-22.41,17.46c-9.26,2.07-17.17,6.94-22.07,13.73a8.63,8.63,0,0,0,7,13.71l74.68-.42a10.74,10.74,0,0,0,10.62-11.88c-.58-5.53-1.2-12-1.48-16.91-.62-10.78-12.3-20.47-12.3-20.47s-10.25,5.89-14.21,6.58C1103,1816.76,1091.78,1813.45,1091.78,1813.45Z" transform="translate(-134.82 -147.97)"/><path class="cls-11" d="M1162,1813.45s-7.71,14.17-22.41,17.46c-9.25,2.07-17.16,6.94-22.06,13.73a8.63,8.63,0,0,0,7,13.71l74.68-.42a10.74,10.74,0,0,0,10.62-11.88c-.59-5.53-1.21-12-1.49-16.91-.61-10.78-12.29-20.47-12.29-20.47s-10.25,5.89-14.21,6.58C1173.26,1816.76,1162,1813.45,1162,1813.45Z" transform="translate(-134.82 -147.97)"/><path class="cls-2" d="M1077.54,1093.91s-48.8,82.28-58.64,149.37c0,0,23.73,32,33.39,9.54S1131.23,1109.94,1077.54,1093.91Z" transform="translate(-134.82 -147.97)"/><path class="cls-6" d="M1086.84,947.85c.52-.87,22.36-35.41,63.18-42.3,33.07-5.58,64,17.79,69.11,50.94,5.11,33.31-.1,76.47-54.45,92Z" transform="translate(-134.82 -147.97)"/><path class="cls-2" d="M1096.83,1096.28l61.51,36.53,16.23-43.24s-7.82-15.82-9.89-41.06a168.34,168.34,0,0,1,1-36.38l-53.48,23.22a98.68,98.68,0,0,1,1.31,12c.39,7.69.13,18-2.66,27.66C1108.43,1083.28,1104.17,1091.05,1096.83,1096.28Z" transform="translate(-134.82 -147.97)"/><path class="cls-3" d="M1238.19,1481.87c-5.74-65.73-14.31-152.15-19.7-187.63a123.24,123.24,0,0,1-.27-35.31l12.65-93.34,4-29.28a34.59,34.59,0,0,0-20.93-36.53c-13.15-5.48-22.78-6.75-39.35-10.21-10.29,9.29-30.29,22.63-51.45,18.5-15.9-3.12-19.06-11-18.2-20.11-4,.39-7.74.14-11.19.61a46.64,46.64,0,0,0-32.11,19.78v0l-.26.44a45.24,45.24,0,0,0-3.11,5.31l-23.38,40s2.26,13.92,13.75,20.33c-11.48,126.5-24.78,412.13-14.06,415.79,69.49,23.71,192.78-9.27,209.47-25.22C1244.87,1564.12,1242.23,1528.11,1238.19,1481.87Z" transform="translate(-134.82 -147.97)"/><path class="cls-7" d="M1086.32,1096.26c-36,28.84-48.1,101.51-43.37,151,9-22.46,8.44-55.77,17.19-91.13,8.5-34.38,32.23-61.18,32.23-61.18C1091.47,1094.92,1086.32,1096.26,1086.32,1096.26Z" transform="translate(-134.82 -147.97)"/><path class="cls-8" d="M1110.84,1075c29.5,1.08,53.84-26.49,53.84-26.49l-51.18-1.17C1113.89,1055,1113.63,1065.35,1110.84,1075Z" transform="translate(-134.82 -147.97)"/><path class="cls-2" d="M1097.6,1057.68s57.76,19.25,81-26.18c25.08-49,3.42-87.28-16.37-91-39.47-7.47-63.55,6.23-71.56,21.82S1065.71,1047.35,1097.6,1057.68Z" transform="translate(-134.82 -147.97)"/><path class="cls-12" d="M1122.56,1032.86s-2.84,5.91-18.12,1.52c0,0-12.83-3.68-10.92-10.44C1093.52,1023.94,1107.21,1021.86,1122.56,1032.86Z" transform="translate(-134.82 -147.97)"/><path class="cls-13" d="M1238.19,1481.87c-1.83-2.12-118.75-138.53-123-211.09-4.23-73.15,58.66-126.59,58.66-126.59,25-1.65,43.56,6.55,57,21.4l-12.65,93.34a123.24,123.24,0,0,0,.27,35.31C1223.88,1329.72,1232.45,1416.14,1238.19,1481.87Z" transform="translate(-134.82 -147.97)"/><path class="cls-7" d="M1192.26,1091.58c-55.79,12.86-70.79,105.05-45.16,175.63,19,52.37,77.67,77.32,77.67,77.32,6.37-7.16,1.45-23.26,1.45-23.26-86-54.82-71.55-132.31-51.65-171.41s23.9-53.6,53.27-43.1C1224.17,1090.34,1192.26,1091.58,1192.26,1091.58Z" transform="translate(-134.82 -147.97)"/><path class="cls-6" d="M1138.07,945.86s-5.48,54.19,45.93,73.39c20.44,7.64,31.08-75.13-11.63-91.65s-84.83,3.1-89.87,32-1.2,34.91-1.2,34.91S1101.3,939.54,1138.07,945.86Z" transform="translate(-134.82 -147.97)"/><path class="cls-2" d="M1169.28,1123.12s-23.57,93.25-24.49,130.34c0,0-51.74,90.36-54.78,96.78s18.68,15.21,18.68,15.21,64.91-69.22,77.42-98.31,56.89-123.68,39.13-151.92S1169.28,1123.12,1169.28,1123.12Z" transform="translate(-134.82 -147.97)"/><path class="cls-2" d="M1018.9,1243.28s-4.64,63.51,40.57,113.55c0,0,12.34-14.85,10.78-19.46s-19.25-75.4-32.17-85.47S1018.9,1243.28,1018.9,1243.28Z" transform="translate(-134.82 -147.97)"/><path class="cls-2" d="M1090,1350.24s-28.93-.21-30.54,6.59,7.43,28.09,28.59,20.68,20.63-12.06,20.63-12.06Z" transform="translate(-134.82 -147.97)"/><path class="cls-2" d="M1070.25,1337.37s23.24,10.74,15.34,22.19-23.68,4.6-26.12-2.73S1070.25,1337.37,1070.25,1337.37Z" transform="translate(-134.82 -147.97)"/><path class="cls-3" d="M1152.26,1172.32s30.34,28.22,77.12,23.85c0,0,23-81.7-13.92-91.73S1148,1142.83,1152.26,1172.32Z" transform="translate(-134.82 -147.97)"/><path class="cls-5" d="M791.33,635.88s70,109.43,47.86,309.39c-6.91,62.42,211.93,161.49,211.93,161.49s16.44-12.86,9.4-35.91c0,0-121.48-121.24-133.83-136.13-11-13.21-40.6-153.9-53.38-200.73C851.32,653.45,791.33,635.88,791.33,635.88Z" transform="translate(-134.82 -147.97)"/><path class="cls-5" d="M470.21,1746.72s-24,21.86-19.29,37.4,26.3,25.9,29.22,44.88,14.61,29.35,25.13,29.35h50.15s7.75-13.36-11-17.39-25.75-26.34-24.58-47.06-1.75-48.34-1.75-48.34l-39.74-9.2Z" transform="translate(-134.82 -147.97)"/><path class="cls-5" d="M764.17,1803.27s-4.3,49.77,6.22,55l134.62-.28s0-15.54-21.62-19-59.61-16.11-66-44.31S764.17,1803.27,764.17,1803.27Z" transform="translate(-134.82 -147.97)"/><path class="cls-7" d="M877.83,1100.29s-7.1,87.24-15.45,192.1c-11.34,142.44-25,317.41-26.33,350.55-2.33,57.56-11.7,149.63-11.7,149.63s-22.19,21.87-66.62,12.65c0,0-39.59-131.43-50.9-270.49-.17-2.28-.35-4.57-.52-6.87-10.52-141.56-26.88-439.65-26.88-439.65Z" transform="translate(-134.82 -147.97)"/><path class="cls-14" d="M877.83,1100.29s-7.1,87.24-15.45,192.1L706.83,1534.73c-.17-2.28-.35-4.57-.52-6.87-10.52-141.56-26.88-439.65-26.88-439.65Z" transform="translate(-134.82 -147.97)"/><path class="cls-7" d="M845.4,1110.66s-128,315.92-212.14,464.38-110.46,189.9-110.46,189.9-48.21-19-52.59-31.93c0,0,32.17-286.63,88.53-356.5,31.85-39.48,69.26-158,71-199.39s11.4-123.44,11.4-123.44Z" transform="translate(-134.82 -147.97)"/><path class="cls-2" d="M677,623.79s86.6,41.79,136.52,26.28a117.79,117.79,0,0,0-33.79-27c1.72-10,3.07-18.72,3.84-26.09a241.38,241.38,0,0,0,2.11-26.67L752.28,544l-31.69-25.15C723.09,589.57,677,623.79,677,623.79Z" transform="translate(-134.82 -147.97)"/><path class="cls-4" d="M883.3,1107.5a7.8,7.8,0,0,1-5.2,2.07c-18.81-.38-73.54,10-119.8,5.29-39.17-3.78-73.74-15.12-110.8-31.37-5-2.27-16.33-8.32-16.13-13.61.21-6.06.77-14.56,1.53-25.54,1.55-21.6,3.74-52.27,4.43-88.63.52-27,.23-57-1.73-88.91-.11-2.13-.22-4.29-.31-6.45-.57-11.68-.84-23.45-.84-35-.2-37.06,2.48-72.41,7.86-104,9.43-54.83,26.9-98.06,53-117.16,3.46-2.65,25.16,8,45.12,17.71,18.25,8.88,36.47,9.83,53.75,6.43l17.28,15.12c20.95,19.08,44,45.36,54.16,85.08,8.44,33.66,13.43,94.53,16.14,157.69,1.33,28.73,2.29,57.47,2.67,84.87v1c.21,2.83.21,5.69.21,8.53C885.59,1050.77,884.65,1106.56,883.3,1107.5Z" transform="translate(-134.82 -147.97)"/><path class="cls-8" d="M720,545.9s21.89,39.89,63.56,51.05a241.38,241.38,0,0,0,2.11-26.67L752.28,544Z" transform="translate(-134.82 -147.97)"/><path class="cls-2" d="M800.92,569.13s-82.61,13.52-90.37-37.27-23.63-83.25,28.78-94,65.65,7.08,72.43,23.41S822.21,564.31,800.92,569.13Z" transform="translate(-134.82 -147.97)"/><path class="cls-6" d="M680.53,431.76c-.75-.86-2.48-1.56-6.33-1.76a15.58,15.58,0,0,1,7.19-2c.81-5.35,3.65-14.83,12.87-17.13a11.56,11.56,0,0,0-5.6,8.33c10.67-11,33.53-18.94,96.85-13.94,83.44,6.59,55.94,60,45.13,66.38s-38-11.09-58.11-9.49-24,30.68-30.79,34.66-4.14-3.06-13.38-7.24-10.11,11.14-7.44,21.09-10,23.08-10,23.08L698.06,519.9c-12.82-13.82-24.91-72.33-19.08-84.8C679.49,434,680,432.88,680.53,431.76Z" transform="translate(-134.82 -147.97)"/><path class="cls-2" d="M1077,1079.37s10.57-4.74,16.88,2.07,21.07,11.49,19.8,15c-2.61,7.37-16.23-.93-30.61,3.54C1078.06,1101.58,1062.45,1092,1077,1079.37Z" transform="translate(-134.82 -147.97)"/><path class="cls-5" d="M637.33,955.71c.52-27,.23-57-1.73-88.91-.11-2.13-.22-4.29-.31-6.45,7.85-38.91,19.73-73.43,37.21-74.55C672.5,785.8,724.59,867.66,637.33,955.71Z" transform="translate(-134.82 -147.97)"/><path class="cls-2" d="M568.43,1096.87s4.34,42.21,9.11,50.2,25.05,33.5,33.69,38.5-5.28-33.62-3.52-41.13,7.11,13.71,10.92,14.21,2.83-18.61,3-25.56-18.52-24.13-25.1-38.93S568.43,1096.87,568.43,1096.87Z" transform="translate(-134.82 -147.97)"/><path class="cls-4" d="M695.54,604.15S643.27,628.9,618.21,667C579.34,726,534.27,941.09,533.44,961s32.89,160.55,32.89,160.55,34.2-2.25,43-19.52c0,0-6.83-144.49-2.5-153.78s142.58-193.82,127-233.2S695.54,604.15,695.54,604.15Z" transform="translate(-134.82 -147.97)"/><path class="cls-2" d="M1246,1041.48c12.27,5.18,29.53,23.21,57.15,12.28,19.76-7.68,40.66-13,50.83-15.54,4-.77,6.33-1.34,6.33-1.34L1349.37,1005a6.2,6.2,0,0,1-1.35.38c-7.09,1.53-43.15,9.21-60,5.37-19-4.41-50.83,18.41-50.83,18.41S1233.71,1036.49,1246,1041.48Z" transform="translate(-134.82 -147.97)"/><rect class="cls-15" y="1709.31" width="1919.1" height="9.99" rx="3.05"/><path class="cls-16" d="M1168.22,342.57H999.75a40.36,40.36,0,0,0-40.24,40.25v63.73a40,40,0,0,0,10,26.47l-10,45.76,57.72-32h151a40.37,40.37,0,0,0,40.25-40.25V382.82A40.37,40.37,0,0,0,1168.22,342.57Z" transform="translate(-134.82 -147.97)"/><path class="cls-17" d="M1171.39,391.13H996.74a6.55,6.55,0,0,1-6.54-6.53h0a6.56,6.56,0,0,1,6.54-6.54h174.65a6.56,6.56,0,0,1,6.54,6.54h0A6.55,6.55,0,0,1,1171.39,391.13Z" transform="translate(-134.82 -147.97)"/><path class="cls-17" d="M1171.39,419.74H996.74a6.56,6.56,0,0,1-6.54-6.54h0a6.55,6.55,0,0,1,6.54-6.53h174.65a6.55,6.55,0,0,1,6.54,6.53h0A6.56,6.56,0,0,1,1171.39,419.74Z" transform="translate(-134.82 -147.97)"/><path class="cls-17" d="M1171.39,447.27H996.74a6.55,6.55,0,0,1-6.54-6.53h0a6.56,6.56,0,0,1,6.54-6.54h174.65a6.56,6.56,0,0,1,6.54,6.54h0A6.55,6.55,0,0,1,1171.39,447.27Z" transform="translate(-134.82 -147.97)"/></svg>